<?xml version="1.0" encoding="iso-8859-1"?>
<!-- Uploaded to: SVG Repo, www.svgrepo.com, Generator: SVG Repo Mixer Tools -->
<svg version="1.1" id="Layer_1" xmlns="http://www.w3.org/2000/svg" xmlns:xlink="http://www.w3.org/1999/xlink" 
	 viewBox="0 0 412.2 412.2" xml:space="preserve">
<g>
	<polyline style="fill:#3A88D6;" points="288.007,308.253 267.425,308.253 265.333,308.253 265.333,257.726 310.67,257.726 
		310.67,308.253 309.98,308.253 288.007,308.253 	"/>
	<polyline style="fill:#3A88D6;" points="310.67,308.253 310.67,379.1 265.333,379.1 265.333,308.253 267.425,308.253 
		288.007,308.253 309.98,308.253 310.67,308.253 	"/>
	<polyline style="fill:#4CC18E;" points="379.1,75.989 321.573,179 299.872,166.883 357.41,63.873 379.1,75.989 	"/>
	<polyline style="fill:#3A88D6;" points="137.419,61.016 137.419,179 112.569,179 112.569,103.779 112.569,61.016 137.419,61.016 	
		"/>
	<polyline style="fill:#4CC18E;" points="112.569,103.779 112.569,179 83.271,179 83.271,103.779 112.569,103.779 	"/>
	<polyline style="fill:#F24125;" points="83.271,103.779 83.271,179 53.974,179 53.974,78.553 83.271,78.553 83.271,103.779 	"/>
	<polyline style="fill:#F7B239;" points="379.11,233.2 379.11,379.1 310.67,379.1 310.67,308.253 310.67,257.726 265.333,257.726 
		265.333,308.253 265.333,379.1 233.2,379.1 233.2,233.2 379.11,233.2 	"/>
	<polyline style="fill:#A17A36;" points="379.11,233.2 233.2,233.2 233.2,379.1 265.333,379.1 265.333,308.253 265.333,257.726 
		310.67,257.726 310.67,308.253 310.67,379.1 379.11,379.1 379.11,233.2 	"/>
	<polyline style="fill:#F24125;" points="379.11,75.989 379.11,179 321.573,179 379.1,75.989 379.11,75.989 	"/>
	<polyline style="fill:#F24125;" points="379.11,33.1 379.11,75.989 379.1,75.989 357.41,63.873 299.872,166.883 321.573,179 
		233.2,179 233.2,33.1 379.11,33.1 	"/>
	<polyline style="fill:#9E3B2B;" points="379.11,75.989 379.1,75.989 321.573,179 379.11,179 379.11,75.989 	"/>
	<polyline style="fill:#9E3B2B;" points="379.11,33.1 233.2,33.1 233.2,179 321.573,179 299.872,166.883 357.41,63.873 
		379.1,75.989 379.11,75.989 379.11,33.1 	"/>
	<polyline style="fill:#F7B239;" points="179.01,33.1 179.01,179 137.419,179 137.419,61.016 112.569,61.016 112.569,103.779 
		83.271,103.779 83.271,78.553 53.974,78.553 53.974,179 33.1,179 33.1,33.1 179.01,33.1 	"/>
	<polyline style="fill:#A17A36;" points="179.01,33.1 33.1,33.1 33.1,179 53.974,179 53.974,78.553 83.271,78.553 83.271,103.779 
		112.569,103.779 112.569,61.016 137.419,61.016 137.419,179 179.01,179 179.01,33.1 	"/>
	<rect x="33.1" y="233.2" style="fill:#F7B239;" width="145.911" height="145.9"/>
	<path style="fill:#F24125;" d="M206.1,206.1v200.1H6V206.1H206.1z M179.011,379.1V233.2H33.1v145.9L179.011,379.1L179.011,379.1z"
		/>
	<path style="fill:#F24125;" d="M406.2,6v200.1H206.1V6H406.2z M379.111,179V75.989V33.1H233.2V179h88.373H379.111z"/>
	<path style="fill:#F7B239;" d="M406.2,206.1v200.1H206.1V206.1H406.2z M379.111,379.1V233.2H233.2v145.9h32.133h45.337
		L379.111,379.1L379.111,379.1z"/>
	<path style="fill:#F7B239;" d="M206.1,6v200.1H6V6H206.1z M179.011,179V33.1H33.1V179h20.874h29.297h29.297h24.85H179.011z"/>
	<path style="fill:#333333;" d="M179.01,385.1H33.1c-3.313,0-6-2.687-6-6V233.2c0-3.313,2.687-6,6-6h145.91c3.314,0,6,2.687,6,6
		v145.9C185.01,382.413,182.324,385.1,179.01,385.1z M39.1,373.1h133.91V239.2H39.1V373.1z"/>
	<path style="fill:#333333;" d="M406.2,0H6C2.687,0,0,2.686,0,6v400.2c0,3.313,2.687,6,6,6h400.2c3.313,0,6-2.687,6-6V6
		C412.2,2.686,409.513,0,406.2,0z M400.2,200.1H212.1V12h188.1V200.1z M12,12h188.1v188.1H12V12z M12,212.1h188.1v188.1H12V212.1z
		 M212.1,400.2V212.1h188.1v188.1H212.1z"/>
	<path style="fill:#333333;" d="M379.11,27.1H233.2c-3.314,0-6,2.686-6,6V179c0,3.313,2.686,6,6,6h145.91c3.313,0,6-2.687,6-6V33.1
		C385.11,29.786,382.424,27.1,379.11,27.1z M239.2,39.1h133.91v26.67l-12.774-7.136c-1.389-0.776-3.029-0.968-4.561-0.535
		c-1.531,0.434-2.828,1.458-3.604,2.847l-57.538,103.011c-0.776,1.389-0.968,3.03-0.535,4.562c0.434,1.531,1.458,2.827,2.848,3.603
		l1.572,0.878H239.2V39.1z M308.037,164.571l51.686-92.534l11.214,6.265l-51.677,92.535L308.037,164.571z M331.796,173l41.315-73.98
		V173H331.796z"/>
	<path style="fill:#333333;" d="M179.01,27.1H33.1c-3.313,0-6,2.686-6,6V179c0,3.313,2.687,6,6,6h145.91c3.314,0,6-2.687,6-6V33.1
		C185.01,29.786,182.324,27.1,179.01,27.1z M77.272,103.78V173H59.974V84.552h17.297v19.228H77.272z M89.272,109.78h17.297V173
		H89.272V109.78z M131.419,173h-12.851v-69.22V67.016h12.851V173z M173.01,173h-29.591V61.016c0-3.314-2.687-6-6-6h-24.851
		c-3.313,0-6,2.686-6,6V97.78H89.272V78.552c0-3.314-2.687-6-6-6H53.974c-3.313,0-6,2.686-6,6V173H39.1V39.1h133.91V173z"/>
	<path style="fill:#333333;" d="M379.11,227.2H233.2c-3.314,0-6,2.687-6,6v145.9c0,3.313,2.686,6,6,6h145.91c3.313,0,6-2.687,6-6
		V233.2C385.11,229.886,382.424,227.2,379.11,227.2z M304.67,302.253h-10.664v-22.607c0-3.313-2.687-6-6-6s-6,2.687-6,6v22.607
		h-10.674v-38.527h33.337v38.527H304.67z M304.67,314.253V373.1h-33.337v-58.847H304.67z M373.11,373.1h-56.44V257.726
		c0-3.313-2.687-6-6-6h-45.337c-3.313,0-6,2.687-6,6V373.1H239.2V239.2h133.91V373.1z"/>
	<path style="fill:#333333;" d="M140.646,312.149c-1.58,0-3.13-0.64-4.25-1.76c-0.27-0.27-0.52-0.58-0.74-0.91
		c-0.22-0.32-0.4-0.67-0.55-1.03c-0.15-0.37-0.27-0.74-0.35-1.13c-0.07-0.38-0.11-0.78-0.11-1.17c0-1.58,0.64-3.13,1.75-4.24
		c1.12-1.12,2.67-1.76,4.25-1.76s3.12,0.64,4.24,1.76c1.12,1.12,1.76,2.66,1.76,4.24c0,0.39-0.04,0.79-0.12,1.17
		c-0.08,0.39-0.19,0.76-0.34,1.13c-0.15,0.36-0.34,0.71-0.56,1.03c-0.21,0.33-0.46,0.64-0.74,0.91
		C143.767,311.509,142.227,312.149,140.646,312.149z"/>
	<path style="fill:#FFFFFF;" d="M158.064,349.756c-3.313,0-6-2.687-6-6v-65.724c0-3.313,2.687-6,6-6s6,2.687,6,6v65.724
		C164.064,347.07,161.377,349.756,158.064,349.756z"/>
	<path style="fill:#FFFFFF;" d="M158.063,263.109c-0.39,0-0.78-0.04-1.17-0.12c-0.38-0.08-0.76-0.19-1.12-0.34
		c-0.37-0.15-0.72-0.34-1.04-0.56c-0.33-0.21-0.64-0.46-0.91-0.74c-0.28-0.28-0.53-0.58-0.75-0.91c-0.21-0.33-0.4-0.68-0.55-1.04
		c-0.15-0.36-0.27-0.74-0.34-1.12c-0.08-0.39-0.12-0.78-0.12-1.17c0-1.58,0.64-3.13,1.76-4.25c0.27-0.27,0.58-0.52,0.91-0.74
		c0.32-0.22,0.67-0.4,1.04-0.55c0.36-0.15,0.74-0.27,1.12-0.35c0.77-0.15,1.57-0.15,2.34,0c0.39,0.08,0.76,0.2,1.13,0.35
		c0.36,0.15,0.71,0.33,1.03,0.55c0.33,0.22,0.64,0.47,0.91,0.74c1.12,1.12,1.76,2.67,1.76,4.25c0,0.39-0.04,0.78-0.12,1.17
		c-0.07,0.38-0.19,0.76-0.34,1.12s-0.34,0.71-0.55,1.04c-0.22,0.33-0.47,0.63-0.75,0.91
		C161.193,262.469,159.643,263.109,158.063,263.109z"/>
</g>
</svg>