<?xml version="1.0" encoding="iso-8859-1"?>
<!-- Uploaded to: SVG Repo, www.svgrepo.com, Generator: SVG Repo Mixer Tools -->
<svg height="800px" width="800px" version="1.1" id="Layer_1" xmlns="http://www.w3.org/2000/svg" xmlns:xlink="http://www.w3.org/1999/xlink" 
	 viewBox="0 0 512 512" xml:space="preserve">
<path style="fill:#F4F4F4;" d="M343.2,260c4.4,0,8,3.6,8,8v16c0,4.4-3.6,8-8,8h-12h-152h-12c-4.4,0-8-3.6-8-8v-16c0-4.4,3.6-8,8-8
	h80h16H343.2z"/>
<polygon style="fill:#9F633C;" points="343.2,292 347.2,292 347.2,508 331.2,508 331.2,444 179.2,444 179.2,508 163.2,508 
	163.2,292 167.2,292 179.2,292 179.2,428 331.2,428 331.2,292 "/>
<circle style="fill:#B2EBF2;" cx="256" cy="104" r="84"/>
<g>
	<circle style="fill:#B78A6D;" cx="276" cy="320" r="4"/>
	<path style="fill:#B78A6D;" d="M179.2,292h152v136h-152V292z M232,320c0,2,1.6,4,4,4s4-2,4-4s-1.6-4-4-4S232,318,232,320z M272,320
		c0,2,1.6,4,4,4s4-2,4-4s-1.6-4-4-4S272,318,272,320z"/>
</g>
<path style="fill:#EBEBEB;" d="M263.2,236v24h-16v-24c0-2,0.8-4,2.4-5.6c1.6-1.6,3.6-2.4,5.6-2.4C259.6,228,263.2,231.6,263.2,236z"
	/>
<path style="fill:#9F633C;" d="M172,104c0,46.4,37.6,84,84,84s84-37.6,84-84s-37.6-84-84-84S172,57.6,172,104z M256,4
	c55.2,0,100,44.8,100,100s-44.8,100-100,100s-100-44.8-100-100S200.8,4,256,4z"/>
<circle style="fill:#B78A6D;" cx="236" cy="320" r="4"/>
<path d="M256,208c-57.2,0-104-46.8-104-104S198.8,0,256,0s104,46.8,104,104S313.2,208,256,208z M256,8c-52.8,0-96,43.2-96,96
	s43.2,96,96,96s96-43.2,96-96S308.8,8,256,8z"/>
<path d="M256,192c-48.4,0-88-39.6-88-88s39.6-88,88-88s88,39.6,88,88S304.4,192,256,192z M256,24c-44,0-80,36-80,80s36,80,80,80
	s80-36,80-80S300,24,256,24z"/>
<path d="M259.6,104c-1.2,0-2-0.4-2.8-1.2l-55.6-55.6c-1.6-1.6-1.6-4,0-5.6s4-1.6,5.6,0l55.6,55.6c1.6,1.6,1.6,4,0,5.6
	C261.6,103.6,260.4,104,259.6,104z"/>
<path d="M296,140.4c-1.2,0-2-0.4-2.8-1.2l-24-24c-1.6-1.6-1.6-4,0-5.6s4-1.6,5.6,0l24,24c1.6,1.6,1.6,4,0,5.6
	C298,140,296.8,140.4,296,140.4z"/>
<path d="M304.8,172c-1.2,0-2-0.4-2.8-1.2l-71.2-71.2c-1.6-1.6-1.6-4,0-5.6s4-1.6,5.6,0l71.2,71.2c1.6,1.6,1.6,4,0,5.6
	C306.8,171.6,305.6,172,304.8,172z"/>
<path d="M347.2,512h-16c-2.4,0-4-1.6-4-4v-60h-144v60c0,2.4-1.6,4-4,4h-16c-2.4,0-4-1.6-4-4V292c0-2.4,1.6-4,4-4s4,1.6,4,4v212h8
	v-60c0-2.4,1.6-4,4-4h152c2.4,0,4,1.6,4,4v60h8V292c0-2.4,1.6-4,4-4s4,1.6,4,4v216C351.2,510.4,349.6,512,347.2,512z"/>
<path d="M331.2,432h-152c-2.4,0-4-1.6-4-4V292c0-2.4,1.6-4,4-4s4,1.6,4,4v132h144V292c0-2.4,1.6-4,4-4s4,1.6,4,4v136
	C335.2,430.4,333.6,432,331.2,432z"/>
<path d="M255.2,416c-2.4,0-4-1.6-4-4V296c0-2.4,1.6-4,4-4s4,1.6,4,4v116C259.2,414.4,257.6,416,255.2,416z"/>
<circle cx="236" cy="320" r="8"/>
<circle cx="276" cy="320" r="8"/>
<path d="M263.2,264c-2.4,0-4-1.6-4-4v-24c0-2.4-1.6-4-4-4c-1.2,0-2,0.4-2.8,1.2c-0.8,0.8-1.2,1.6-1.2,2.8v24c0,2.4-1.6,4-4,4
	s-4-1.6-4-4v-24c0-3.2,1.2-6.4,3.6-8.4c2-2.4,5.2-3.6,8.4-3.6c6.8,0,12,5.2,12,12v24C267.2,262.4,265.6,264,263.2,264z"/>
<path d="M343.2,296h-176c-6.8,0-12-5.2-12-12v-16c0-6.8,5.2-12,12-12h176c6.8,0,12,5.2,12,12v16C355.2,290.8,350,296,343.2,296z
	 M167.2,264c-2.4,0-4,1.6-4,4v16c0,2.4,1.6,4,4,4h176c2.4,0,4-1.6,4-4v-16c0-2.4-1.6-4-4-4H167.2z"/>
</svg>